<?xml version="1.0" encoding="UTF-8" standalone="no"?>
<!-- Created with Inkscape (http://www.inkscape.org/) -->

<svg
   xmlns:dc="http://purl.org/dc/elements/1.1/"
   xmlns:cc="http://creativecommons.org/ns#"
   xmlns:rdf="http://www.w3.org/1999/02/22-rdf-syntax-ns#"
   xmlns:svg="http://www.w3.org/2000/svg"
   xmlns="http://www.w3.org/2000/svg"
   xmlns:sodipodi="http://sodipodi.sourceforge.net/DTD/sodipodi-0.dtd"
   xmlns:inkscape="http://www.inkscape.org/namespaces/inkscape"
   width="83.581856mm"
   height="35.546844mm"
   viewBox="0 0 83.581856 35.546844"
   version="1.1"
   id="svg161"
   sodipodi:docname="dignat-consulting-ab-color.svg"
   inkscape:version="0.92.2 (5c3e80d, 2017-08-06)">
  <defs
     id="defs155" />
  <sodipodi:namedview
     id="base"
     pagecolor="#ffffff"
     bordercolor="#666666"
     borderopacity="1.0"
     inkscape:pageopacity="0.0"
     inkscape:pageshadow="2"
     inkscape:zoom="5.6568543"
     inkscape:cx="218.55999"
     inkscape:cy="57.154004"
     inkscape:document-units="mm"
     inkscape:current-layer="layer1"
     showgrid="false"
     inkscape:window-width="3840"
     inkscape:window-height="2004"
     inkscape:window-x="-16"
     inkscape:window-y="-16"
     inkscape:window-maximized="1"
     inkscape:measure-start="0,0"
     inkscape:measure-end="0,0" />
  <metadata
     id="metadata158">
    <rdf:RDF>
      <cc:Work
         rdf:about="">
        <dc:format>image/svg+xml</dc:format>
        <dc:type
           rdf:resource="http://purl.org/dc/dcmitype/StillImage" />
        <dc:title></dc:title>
      </cc:Work>
    </rdf:RDF>
  </metadata>
  <g
     inkscape:label="Layer 1"
     inkscape:groupmode="layer"
     id="layer1"
     transform="translate(-3.9756343,-1.5869836)">
    <g
       aria-label="dignat"
       style="font-style:normal;font-variant:normal;font-weight:normal;font-stretch:normal;font-size:22.57777786px;line-height:1.25;font-family:'Fira Code';-inkscape-font-specification:'Fira Code';letter-spacing:0px;word-spacing:0px;fill:#222222;fill-opacity:1;stroke:none;stroke-width:0.26458332"
       id="text179">
      <path
         d="m 14.748208,2.987102 v 6.1863112 c -0.8128,-0.9256889 -1.8288,-1.4224 -3.206044,-1.4224 -2.9125336,0 -4.6510225,2.6415998 -4.6510225,6.2088888 0,3.702756 1.4224,6.186311 4.5381335,6.186311 1.286933,0 2.483555,-0.564444 3.364089,-1.806222 l 0.180622,1.557867 h 1.670756 V 3.2128798 Z m -2.709333,6.2992001 c 1.106311,0 2.054578,0.5644444 2.709333,1.5352889 v 5.915378 c -0.654755,0.993422 -1.580444,1.896533 -2.935111,1.896533 -1.8739555,0 -2.8673777,-1.580444 -2.8673777,-4.6736 0,-3.138311 1.1288887,-4.6735999 3.0931557,-4.6735999 z"
         style="font-size:22.57777786px;fill:#222222;fill-opacity:1;stroke-width:0.26458332"
         id="path1137" />
      <path
         d="m 25.667033,2.4452354 c -0.8128,0 -1.354666,0.5644444 -1.354666,1.3320889 0,0.7676444 0.541866,1.3320889 1.354666,1.3320889 0.835378,0 1.399823,-0.5644445 1.399823,-1.3320889 0,-0.7676445 -0.564445,-1.3320889 -1.399823,-1.3320889 z m 1.512712,5.5541333 H 21.7385 v 1.5127111 h 3.544711 v 8.8730672 h -3.6576 v 1.512711 h 8.895645 v -1.512711 h -3.341511 z"
         style="font-size:22.57777786px;fill:#222222;fill-opacity:1;stroke-width:0.26458332"
         id="path1139" />
      <path
         d="m 44.375192,6.757591 c -1.399822,0.5870222 -2.4384,0.9934222 -5.418667,0.9934222 -2.822222,0 -4.741333,1.7159111 -4.741333,4.1317338 0,1.535288 0.632178,2.573866 1.986845,3.273777 -0.857956,0.564445 -1.309512,1.332089 -1.309512,2.077156 0,1.196622 0.925689,2.257778 3.002845,2.257778 h 2.122311 c 1.512711,0 2.664178,0.564444 2.664178,1.693333 0,1.286933 -1.151467,1.964267 -3.747911,1.964267 -2.664178,0 -3.296356,-0.654756 -3.296356,-2.054578 h -1.715911 c 0,2.415822 1.2192,3.589867 5.012267,3.589867 3.612444,0 5.667022,-1.286934 5.667022,-3.612445 0,-1.851378 -1.806222,-3.228622 -4.199467,-3.228622 h -2.144889 c -1.2192,0 -1.580444,-0.451556 -1.580444,-1.016 0,-0.428978 0.270933,-0.880533 0.6096,-1.151467 0.519289,0.180622 0.993422,0.248356 1.783644,0.248356 2.822223,0 4.4704,-1.693334 4.4704,-4.041422 0,-1.354667 -0.677333,-2.3706672 -2.077155,-3.0028449 1.332089,0 2.483555,-0.022578 3.476978,-0.3386667 z m -5.441244,2.3932444 c 1.761066,0 2.6416,0.9256886 2.6416,2.7093336 0,1.761066 -0.903111,2.799644 -2.596445,2.799644 -1.941689,0 -2.822222,-1.151466 -2.822222,-2.777066 0,-1.603023 0.857956,-2.7319116 2.777067,-2.7319116 z"
         style="font-size:22.57777786px;fill:#222222;fill-opacity:1;stroke-width:0.26458332"
         id="path1141" />
      <path
         d="m 48.227171,19.897858 h 1.896533 v -8.647289 c 0.632178,-0.948267 1.8288,-1.9868447 3.228623,-1.9868447 1.783644,0 2.032,0.9708447 2.032,3.4092447 v 7.224889 h 1.896533 v -8.624711 c 0,-2.2126227 -1.016,-3.5221338 -3.341511,-3.5221338 -1.399822,0 -2.980267,0.6999111 -3.928534,1.9191111 L 49.852771,7.9993687 h -1.6256 z"
         style="font-size:22.57777786px;fill:#222222;fill-opacity:1;stroke-width:0.26458332"
         id="path1143" />
      <path
         d="m 70.29942,17.301413 v -5.712178 c 0,-2.3480885 -1.490133,-3.8382218 -4.447822,-3.8382218 -1.174044,0 -2.4384,0.2257778 -3.905955,0.7450666 l 0.519289,1.4449778 c 1.2192,-0.4289778 2.302933,-0.6096 3.093155,-0.6096 1.761067,0 2.822222,0.6321778 2.822222,2.3706664 v 0.970845 h -1.761066 c -3.589867,0 -5.554134,1.377244 -5.554134,3.815644 0,2.212622 1.444978,3.6576 3.838223,3.6576 1.535288,0 2.867377,-0.564444 3.725333,-1.670755 0.316089,1.083733 1.151467,1.557866 2.167467,1.693333 l 0.474133,-1.354667 C 70.592932,18.610924 70.29942,18.24968 70.29942,17.301413 Z m -4.921955,1.4224 c -1.557867,0 -2.280356,-0.767644 -2.280356,-2.257778 0,-1.535288 0.948267,-2.483555 3.567289,-2.483555 h 1.715911 v 3.048 c -0.699911,1.061155 -1.8288,1.693333 -3.002844,1.693333 z"
         style="font-size:22.57777786px;fill:#222222;fill-opacity:1;stroke-width:0.26458332"
         id="path1145" />
      <path
         d="m 84.762959,19.288258 -0.745067,-1.286934 c -0.632178,0.338667 -1.399822,0.564445 -2.280355,0.564445 -1.6256,0 -2.280356,-0.699911 -2.280356,-2.009422 V 9.4895021 h 3.883378 L 83.588914,7.9993687 H 79.457181 V 5.0868354 l -1.896533,0.2257778 v 2.6867555 h -2.731911 v 1.4901334 h 2.731911 v 7.0894219 c 0,2.077156 1.444977,3.567289 3.996266,3.567289 1.128889,0 2.370667,-0.316089 3.206045,-0.857955 z"
         style="font-size:22.57777786px;fill:#222222;fill-opacity:1;stroke-width:0.26458332"
         id="path1147" />
    </g>
    <g
       aria-label="Consulting AB "
       style="font-style:normal;font-variant:normal;font-weight:normal;font-stretch:normal;font-size:10.58333302px;line-height:1.25;font-family:'Fira Code';-inkscape-font-specification:'Fira Code';letter-spacing:0px;word-spacing:0px;fill:#444444;fill-opacity:1;stroke:none;stroke-width:0.26458332"
       id="text183">
      <path
         d="m 8.0863496,26.30561 c -1.68275,0 -3.1220833,1.30175 -3.1220833,3.757084 0,2.455333 1.3864167,3.767666 3.1644166,3.767666 1.0371666,0 1.7356666,-0.359833 2.1801661,-0.79375 L 9.8325995,32.443944 c -0.3915833,0.306916 -0.8784166,0.60325 -1.6933333,0.60325 -1.2488333,0 -2.2119166,-0.814917 -2.2119166,-2.9845 0,-2.2225 1.0371667,-2.9845 2.2225,-2.9845 0.5609166,0 1.0689166,0.148166 1.5345833,0.53975 l 0.5185831,-0.60325 C 9.6209329,26.55961 9.0388495,26.30561 8.0863496,26.30561 Z"
         style="fill:#444444;fill-opacity:1;stroke-width:0.26458332"
         id="path1112" />
      <path
         d="m 13.828965,28.02011 c -1.566333,0 -2.413,1.195917 -2.413,2.910417 0,1.756833 0.836084,2.899833 2.402417,2.899833 1.55575,0 2.402417,-1.195916 2.402417,-2.910416 0,-1.756834 -0.8255,-2.899834 -2.391834,-2.899834 z m 0,0.73025 c 0.9525,0 1.42875,0.6985 1.42875,2.169584 0,1.49225 -0.47625,2.180166 -1.439333,2.180166 -0.963083,0 -1.439333,-0.687916 -1.439333,-2.169583 0,-1.481667 0.486833,-2.180167 1.449916,-2.180167 z"
         style="fill:#444444;fill-opacity:1;stroke-width:0.26458332"
         id="path1114" />
      <path
         d="m 18.047581,33.713943 h 0.889 v -4.053416 c 0.296333,-0.4445 0.85725,-0.931333 1.513417,-0.931333 0.836083,0 0.9525,0.455083 0.9525,1.598083 v 3.386666 h 0.889 V 29.67111 c 0,-1.037166 -0.47625,-1.651 -1.566334,-1.651 -0.656166,0 -1.397,0.328084 -1.8415,0.899584 l -0.07408,-0.783167 h -0.762 z"
         style="fill:#444444;fill-opacity:1;stroke-width:0.26458332"
         id="path1116" />
      <path
         d="m 26.298447,33.10011 c -0.656166,0 -1.248833,-0.243416 -1.68275,-0.60325 l -0.497416,0.582084 c 0.47625,0.412749 1.164166,0.751416 2.180166,0.751416 1.185334,0 2.338917,-0.465667 2.338917,-1.661583 0,-1.037167 -0.719667,-1.418167 -1.80975,-1.7145 -1.121833,-0.306917 -1.471083,-0.47625 -1.471083,-0.98425 0,-0.423333 0.3175,-0.73025 1.2065,-0.73025 0.719666,0 1.195916,0.22225 1.608666,0.508 l 0.402167,-0.613833 c -0.47625,-0.338667 -1.132417,-0.613834 -2.032,-0.613834 -1.259417,0 -2.116667,0.592667 -2.116667,1.524 0,0.973667 0.751417,1.322917 1.905,1.608667 1.185334,0.296333 1.344084,0.560917 1.344084,1.058333 0,0.53975 -0.518584,0.889 -1.375834,0.889 z"
         style="fill:#444444;fill-opacity:1;stroke-width:0.26458332"
         id="path1118" />
      <path
         d="m 31.628313,28.136527 h -0.889 v 4.053417 c 0,1.037166 0.529166,1.640416 1.608666,1.640416 0.656167,0 1.344083,-0.306917 1.788583,-0.867833 l 0.07408,0.751416 h 0.762 v -5.577416 h -0.889 v 4.106333 c -0.306917,0.47625 -0.899584,0.889 -1.513417,0.889 -0.645583,0 -0.941916,-0.3175 -0.941916,-1.037166 z"
         style="fill:#444444;fill-opacity:1;stroke-width:0.26458332"
         id="path1120" />
      <path
         d="m 39.265344,25.89286 h -2.6035 v 0.709084 h 1.7145 v 5.693833 c 0,0.963083 0.66675,1.534583 1.651,1.534583 0.5715,0 1.026584,-0.127 1.322917,-0.28575 l -0.232833,-0.645583 c -0.306917,0.116417 -0.60325,0.1905 -0.931334,0.1905 -0.53975,0 -0.92075,-0.201083 -0.92075,-0.751417 z"
         style="fill:#444444;fill-opacity:1;stroke-width:0.26458332"
         id="path1122" />
      <path
         d="m 47.865461,33.428193 -0.349249,-0.603249 c -0.296334,0.15875 -0.656167,0.264583 -1.068917,0.264583 -0.762,0 -1.068917,-0.328083 -1.068917,-0.941917 v -3.312583 h 1.820334 l 0.116416,-0.6985 h -1.93675 v -1.36525 l -0.889,0.105833 v 1.259417 h -1.280583 v 0.6985 h 1.280583 v 3.323167 c 0,0.973666 0.677334,1.672166 1.87325,1.672166 0.529167,0 1.11125,-0.148167 1.502833,-0.402167 z"
         style="fill:#444444;fill-opacity:1;stroke-width:0.26458332"
         id="path1124" />
      <path
         d="m 51.893575,25.533027 c -0.381,0 -0.635,0.264583 -0.635,0.624417 0,0.359833 0.254,0.624416 0.635,0.624416 0.391583,0 0.656167,-0.264583 0.656167,-0.624416 0,-0.359834 -0.264584,-0.624417 -0.656167,-0.624417 z m 0.709083,2.6035 h -2.550583 v 0.709083 h 1.661583 v 4.15925 h -1.7145 v 0.709083 h 4.169834 V 33.00486 h -1.566334 z"
         style="fill:#444444;fill-opacity:1;stroke-width:0.26458332"
         id="path1126" />
      <path
         d="m 56.122775,33.713943 h 0.889 v -4.053416 c 0.296334,-0.4445 0.85725,-0.931333 1.513417,-0.931333 0.836083,0 0.9525,0.455083 0.9525,1.598083 v 3.386666 h 0.889 V 29.67111 c 0,-1.037166 -0.47625,-1.651 -1.566333,-1.651 -0.656167,0 -1.397,0.328084 -1.8415,0.899584 l -0.07408,-0.783167 h -0.762 z"
         style="fill:#444444;fill-opacity:1;stroke-width:0.26458332"
         id="path1128" />
      <path
         d="m 67.008892,27.554444 c -0.656166,0.275166 -1.142999,0.465666 -2.539999,0.465666 -1.322917,0 -2.2225,0.804334 -2.2225,1.93675 0,0.719667 0.296333,1.2065 0.931333,1.534584 -0.402167,0.264583 -0.613833,0.624416 -0.613833,0.973666 0,0.560917 0.433916,1.058333 1.407583,1.058333 h 0.994833 c 0.709084,0 1.248834,0.264584 1.248834,0.79375 0,0.60325 -0.53975,0.92075 -1.756834,0.92075 -1.248833,0 -1.545166,-0.306916 -1.545166,-0.963083 h -0.804334 c 0,1.132417 0.5715,1.68275 2.3495,1.68275 1.693334,0 2.656417,-0.60325 2.656417,-1.693333 0,-0.867834 -0.846667,-1.513417 -1.9685,-1.513417 h -1.005417 c -0.5715,0 -0.740833,-0.211666 -0.740833,-0.47625 0,-0.201083 0.127,-0.41275 0.28575,-0.53975 0.243417,0.08467 0.465667,0.116417 0.836083,0.116417 1.322917,0 2.0955,-0.79375 2.0955,-1.894417 0,-0.635 -0.3175,-1.11125 -0.973666,-1.407583 0.624416,0 1.164166,-0.01058 1.629833,-0.15875 z m -2.550583,1.121833 c 0.8255,0 1.23825,0.433917 1.23825,1.27 0,0.8255 -0.423333,1.312333 -1.217083,1.312333 -0.910167,0 -1.322917,-0.53975 -1.322917,-1.30175 0,-0.751416 0.402167,-1.280583 1.30175,-1.280583 z"
         style="fill:#444444;fill-opacity:1;stroke-width:0.26458332"
         id="path1130" />
      <path
         d="m 78.695203,31.851277 0.582083,1.862666 h 0.9525 l -2.370667,-7.291916 h -1.164166 l -2.38125,7.291916 h 0.910166 l 0.582084,-1.862666 z m -2.645834,-0.762 1.2065,-3.884083 1.195917,3.884083 z"
         style="fill:#444444;fill-opacity:1;stroke-width:0.26458332"
         id="path1132" />
      <path
         d="m 86.162907,31.63961 c 0,-1.23825 -0.867834,-1.651 -1.68275,-1.788583 0.6985,-0.15875 1.36525,-0.645583 1.36525,-1.5875 0,-1.42875 -1.30175,-1.8415 -2.582333,-1.8415 h -1.799167 v 7.291916 h 1.9685 c 1.3335,0 2.7305,-0.486833 2.7305,-2.074333 z M 84.90349,28.316444 c 0,0.846666 -0.486833,1.2065 -1.344083,1.2065 h -1.17475 v -2.3495 h 1.090083 c 0.878417,0 1.42875,0.306916 1.42875,1.143 z m 0.28575,3.354916 c 0,1.0795 -0.889,1.280584 -1.598083,1.280584 h -1.2065 v -2.667 h 1.23825 c 0.85725,0 1.566333,0.275166 1.566333,1.386416 z"
         style="fill:#444444;fill-opacity:1;stroke-width:0.26458332"
         id="path1134" />
    </g>
    <path
       style="fill:#ea9f30;fill-opacity:1;stroke-width:0.2592105"
       d="M 8.3840809,22.232857 H 32.683243 v 1.144986 H 8.3840809 Z"
       id="rect185" />
    <path
       style="fill:#ea9f30;fill-opacity:1;stroke-width:0.32241458"
       d="m 45.818771,22.232857 h 37.593731 v 1.144986 H 45.818771 Z"
       id="rect185-9" />
  </g>
</svg>
