<?xml version="1.0" encoding="UTF-8"?>
<svg width="83.582mm" height="35.547mm" version="1.1" viewBox="0 0 83.582 35.547" xmlns="http://www.w3.org/2000/svg" class="dignat-consulting-ab-logo">
 <g transform="translate(-3.9756 -1.587)">
  <g fill="#222" stroke-width=".26458" aria-label="dignat" class="dignat-consulting-ab-logo__main">
   <path d="m14.748 2.9871v6.1863c-0.8128-0.92569-1.8288-1.4224-3.206-1.4224-2.9125 0-4.651 2.6416-4.651 6.2089 0 3.7028 1.4224 6.1863 4.5381 6.1863 1.2869 0 2.4836-0.56444 3.3641-1.8062l0.18062 1.5579h1.6708v-16.685zm-2.7093 6.2992c1.1063 0 2.0546 0.56444 2.7093 1.5353v5.9154c-0.65476 0.99342-1.5804 1.8965-2.9351 1.8965-1.874 0-2.8674-1.5804-2.8674-4.6736 0-3.1383 1.1289-4.6736 3.0932-4.6736z"/>
   <path d="m25.667 2.4452c-0.8128 0-1.3547 0.56444-1.3547 1.3321 0 0.76764 0.54187 1.3321 1.3547 1.3321 0.83538 0 1.3998-0.56444 1.3998-1.3321 0-0.76764-0.56444-1.3321-1.3998-1.3321zm1.5127 5.5541h-5.4412v1.5127h3.5447v8.8731h-3.6576v1.5127h8.8956v-1.5127h-3.3415z"/>
   <path d="m44.375 6.7576c-1.3998 0.58702-2.4384 0.99342-5.4187 0.99342-2.8222 0-4.7413 1.7159-4.7413 4.1317 0 1.5353 0.63218 2.5739 1.9868 3.2738-0.85796 0.56444-1.3095 1.3321-1.3095 2.0772 0 1.1966 0.92569 2.2578 3.0028 2.2578h2.1223c1.5127 0 2.6642 0.56444 2.6642 1.6933 0 1.2869-1.1515 1.9643-3.7479 1.9643-2.6642 0-3.2964-0.65476-3.2964-2.0546h-1.7159c0 2.4158 1.2192 3.5899 5.0123 3.5899 3.6124 0 5.667-1.2869 5.667-3.6124 0-1.8514-1.8062-3.2286-4.1995-3.2286h-2.1449c-1.2192 0-1.5804-0.45156-1.5804-1.016 0-0.42898 0.27093-0.88053 0.6096-1.1515 0.51929 0.18062 0.99342 0.24836 1.7836 0.24836 2.8222 0 4.4704-1.6933 4.4704-4.0414 0-1.3547-0.67733-2.3707-2.0772-3.0028 1.3321 0 2.4836-0.022578 3.477-0.33867zm-5.4412 2.3932c1.7611 0 2.6416 0.92569 2.6416 2.7093 0 1.7611-0.90311 2.7996-2.5964 2.7996-1.9417 0-2.8222-1.1515-2.8222-2.7771 0-1.603 0.85796-2.7319 2.7771-2.7319z"/>
   <path d="m48.227 19.898h1.8965v-8.6473c0.63218-0.94827 1.8288-1.9868 3.2286-1.9868 1.7836 0 2.032 0.97084 2.032 3.4092v7.2249h1.8965v-8.6247c0-2.2126-1.016-3.5221-3.3415-3.5221-1.3998 0-2.9803 0.69991-3.9285 1.9191l-0.15804-1.6708h-1.6256z"/>
   <path d="m70.299 17.301v-5.7122c0-2.3481-1.4901-3.8382-4.4478-3.8382-1.174 0-2.4384 0.22578-3.906 0.74507l0.51929 1.445c1.2192-0.42898 2.3029-0.6096 3.0932-0.6096 1.7611 0 2.8222 0.63218 2.8222 2.3707v0.97084h-1.7611c-3.5899 0-5.5541 1.3772-5.5541 3.8156 0 2.2126 1.445 3.6576 3.8382 3.6576 1.5353 0 2.8674-0.56444 3.7253-1.6708 0.31609 1.0837 1.1515 1.5579 2.1675 1.6933l0.47413-1.3547c-0.67733-0.2032-0.97084-0.56444-0.97084-1.5127zm-4.922 1.4224c-1.5579 0-2.2804-0.76764-2.2804-2.2578 0-1.5353 0.94827-2.4836 3.5673-2.4836h1.7159v3.048c-0.69991 1.0612-1.8288 1.6933-3.0028 1.6933z"/>
   <path d="m84.763 19.288-0.74507-1.2869c-0.63218 0.33867-1.3998 0.56444-2.2804 0.56444-1.6256 0-2.2804-0.69991-2.2804-2.0094v-7.0668h3.8834l0.24836-1.4901h-4.1317v-2.9125l-1.8965 0.22578v2.6868h-2.7319v1.4901h2.7319v7.0894c0 2.0772 1.445 3.5673 3.9963 3.5673 1.1289 0 2.3707-0.31609 3.206-0.85796z"/>
  </g>
  <g fill="#444" stroke-width=".26458" aria-label="Consulting AB" class="dignat-consulting-ab-logo__secondary">
   <path d="m8.0863 26.306c-1.6828 0-3.1221 1.3018-3.1221 3.7571 0 2.4553 1.3864 3.7677 3.1644 3.7677 1.0372 0 1.7357-0.35983 2.1802-0.79375l-0.47625-0.59267c-0.39158 0.30692-0.87842 0.60325-1.6933 0.60325-1.2488 0-2.2119-0.81492-2.2119-2.9845 0-2.2225 1.0372-2.9845 2.2225-2.9845 0.56092 0 1.0689 0.14817 1.5346 0.53975l0.51858-0.60325c-0.58208-0.45508-1.1642-0.70908-2.1167-0.70908z"/>
   <path d="m13.829 28.02c-1.5663 0-2.413 1.1959-2.413 2.9104 0 1.7568 0.83608 2.8998 2.4024 2.8998 1.5558 0 2.4024-1.1959 2.4024-2.9104 0-1.7568-0.8255-2.8998-2.3918-2.8998zm0 0.73025c0.9525 0 1.4288 0.6985 1.4288 2.1696 0 1.4922-0.47625 2.1802-1.4393 2.1802s-1.4393-0.68792-1.4393-2.1696 0.48683-2.1802 1.4499-2.1802z"/>
   <path d="m18.048 33.714h0.889v-4.0534c0.29633-0.4445 0.85725-0.93133 1.5134-0.93133 0.83608 0 0.9525 0.45508 0.9525 1.5981v3.3867h0.889v-4.0428c0-1.0372-0.47625-1.651-1.5663-1.651-0.65617 0-1.397 0.32808-1.8415 0.89958l-0.07408-0.78317h-0.762z"/>
   <path d="m26.298 33.1c-0.65617 0-1.2488-0.24342-1.6828-0.60325l-0.49742 0.58208c0.47625 0.41275 1.1642 0.75142 2.1802 0.75142 1.1853 0 2.3389-0.46567 2.3389-1.6616 0-1.0372-0.71967-1.4182-1.8098-1.7145-1.1218-0.30692-1.4711-0.47625-1.4711-0.98425 0-0.42333 0.3175-0.73025 1.2065-0.73025 0.71967 0 1.1959 0.22225 1.6087 0.508l0.40217-0.61383c-0.47625-0.33867-1.1324-0.61383-2.032-0.61383-1.2594 0-2.1167 0.59267-2.1167 1.524 0 0.97367 0.75142 1.3229 1.905 1.6087 1.1853 0.29633 1.3441 0.56092 1.3441 1.0583 0 0.53975-0.51858 0.889-1.3758 0.889z"/>
   <path d="m31.628 28.137h-0.889v4.0534c0 1.0372 0.52917 1.6404 1.6087 1.6404 0.65617 0 1.3441-0.30692 1.7886-0.86783l0.07408 0.75142h0.762v-5.5774h-0.889v4.1063c-0.30692 0.47625-0.89958 0.889-1.5134 0.889-0.64558 0-0.94192-0.3175-0.94192-1.0372z"/>
   <path d="m39.265 25.893h-2.6035v0.70908h1.7145v5.6938c0 0.96308 0.66675 1.5346 1.651 1.5346 0.5715 0 1.0266-0.127 1.3229-0.28575l-0.23283-0.64558c-0.30692 0.11642-0.60325 0.1905-0.93133 0.1905-0.53975 0-0.92075-0.20108-0.92075-0.75142z"/>
   <path d="m47.865 33.428-0.34925-0.60325c-0.29633 0.15875-0.65617 0.26458-1.0689 0.26458-0.762 0-1.0689-0.32808-1.0689-0.94192v-3.3126h1.8203l0.11642-0.6985h-1.9368v-1.3652l-0.889 0.10583v1.2594h-1.2806v0.6985h1.2806v3.3232c0 0.97367 0.67733 1.6722 1.8732 1.6722 0.52917 0 1.1112-0.14817 1.5028-0.40217z"/>
   <path d="m51.894 25.533c-0.381 0-0.635 0.26458-0.635 0.62442 0 0.35983 0.254 0.62442 0.635 0.62442 0.39158 0 0.65617-0.26458 0.65617-0.62442 0-0.35983-0.26458-0.62442-0.65617-0.62442zm0.70908 2.6035h-2.5506v0.70908h1.6616v4.1592h-1.7145v0.70908h4.1698v-0.70908h-1.5663z"/>
   <path d="m56.123 33.714h0.889v-4.0534c0.29633-0.4445 0.85725-0.93133 1.5134-0.93133 0.83608 0 0.9525 0.45508 0.9525 1.5981v3.3867h0.889v-4.0428c0-1.0372-0.47625-1.651-1.5663-1.651-0.65617 0-1.397 0.32808-1.8415 0.89958l-0.07408-0.78317h-0.762z"/>
   <path d="m67.009 27.554c-0.65617 0.27517-1.143 0.46567-2.54 0.46567-1.3229 0-2.2225 0.80433-2.2225 1.9368 0 0.71967 0.29633 1.2065 0.93133 1.5346-0.40217 0.26458-0.61383 0.62442-0.61383 0.97367 0 0.56092 0.43392 1.0583 1.4076 1.0583h0.99483c0.70908 0 1.2488 0.26458 1.2488 0.79375 0 0.60325-0.53975 0.92075-1.7568 0.92075-1.2488 0-1.5452-0.30692-1.5452-0.96308h-0.80433c0 1.1324 0.5715 1.6828 2.3495 1.6828 1.6933 0 2.6564-0.60325 2.6564-1.6933 0-0.86783-0.84667-1.5134-1.9685-1.5134h-1.0054c-0.5715 0-0.74083-0.21167-0.74083-0.47625 0-0.20108 0.127-0.41275 0.28575-0.53975 0.24342 0.08467 0.46567 0.11642 0.83608 0.11642 1.3229 0 2.0955-0.79375 2.0955-1.8944 0-0.635-0.3175-1.1112-0.97367-1.4076 0.62442 0 1.1642-0.01058 1.6298-0.15875zm-2.5506 1.1218c0.8255 0 1.2382 0.43392 1.2382 1.27 0 0.8255-0.42333 1.3123-1.2171 1.3123-0.91017 0-1.3229-0.53975-1.3229-1.3018 0-0.75142 0.40217-1.2806 1.3018-1.2806z"/>
   <path d="m78.695 31.851 0.58208 1.8627h0.9525l-2.3707-7.2919h-1.1642l-2.3812 7.2919h0.91017l0.58208-1.8627zm-2.6458-0.762 1.2065-3.8841 1.1959 3.8841z"/>
   <path d="m86.163 31.64c0-1.2382-0.86783-1.651-1.6828-1.7886 0.6985-0.15875 1.3652-0.64558 1.3652-1.5875 0-1.4288-1.3018-1.8415-2.5823-1.8415h-1.7992v7.2919h1.9685c1.3335 0 2.7305-0.48683 2.7305-2.0743zm-1.2594-3.3232c0 0.84667-0.48683 1.2065-1.3441 1.2065h-1.1748v-2.3495h1.0901c0.87842 0 1.4288 0.30692 1.4288 1.143zm0.28575 3.3549c0 1.0795-0.889 1.2806-1.5981 1.2806h-1.2065v-2.667h1.2382c0.85725 0 1.5663 0.27517 1.5663 1.3864z"/>
  </g>
  <path d="m8.3841 22.233h24.299v1.145h-24.299z" fill="#ea9f30" stroke-width=".25921" class="dignat-consulting-ab-logo__stroke"/>
  <path d="m45.819 22.233h37.594v1.145h-37.594z" fill="#ea9f30" stroke-width=".32241" class="dignat-consulting-ab-logo__stroke"/>
 </g>
</svg>
